<svg data-v-423bf9ae="" xmlns="http://www.w3.org/2000/svg" viewBox="0 0 496.3905121259121 60" class="font"><!----><!----><!----><g data-v-423bf9ae="" id="3fd24c1c-727c-486f-90f1-2f723b55c522" fill="white" transform="matrix(5.917159562968884,0,0,5.917159562968884,-5.976337846047642,-22.366863217149664)"><path d="M4.54 13.92L4.54 13.92L4.54 13.92Q3.35 13.92 2.53 13.17L2.53 13.17L2.53 13.17Q1.71 12.42 1.36 11.31L1.36 11.31L1.36 11.31Q1.01 10.19 1.01 8.85L1.01 8.85L1.01 8.85Q1.01 6.73 1.92 5.26L1.92 5.26L1.92 5.26Q2.83 3.78 4.54 3.78L4.54 3.78L4.54 3.78Q5.60 3.78 6.22 4.24L6.22 4.24L6.22 4.24Q6.83 4.70 7.25 5.49L7.25 5.49L6.19 6.10L6.19 6.10Q5.88 5.54 5.50 5.22L5.50 5.22L5.50 5.22Q5.12 4.90 4.54 4.90L4.54 4.90L4.54 4.90Q3.74 4.90 3.21 5.53L3.21 5.53L3.21 5.53Q2.67 6.16 2.47 7.01L2.47 7.01L2.47 7.01Q2.27 7.85 2.27 8.85L2.27 8.85L2.27 8.85Q2.27 10.51 2.84 11.66L2.84 11.66L2.84 11.66Q3.42 12.80 4.54 12.80L4.54 12.80L4.54 12.80Q5.36 12.80 5.84 12.19L5.84 12.19L5.84 12.19Q6.31 11.58 6.31 10.57L6.31 10.57L6.31 10.11L4.55 10.11L4.55 9.00L7.57 9.00L7.57 10.18L7.57 10.18Q7.57 11.94 6.72 12.93L6.72 12.93L6.72 12.93Q5.87 13.92 4.54 13.92ZM14.48 13.48L14.48 13.48L14.48 13.48Q13.82 13.92 12.94 13.92L12.94 13.92L12.94 13.92Q12.05 13.92 11.39 13.48L11.39 13.48L11.39 13.48Q10.72 13.05 10.35 12.31L10.35 12.31L10.35 12.31Q9.97 11.56 9.79 10.70L9.79 10.70L9.79 10.70Q9.60 9.83 9.60 8.85L9.60 8.85L9.60 8.85Q9.60 7.87 9.79 7.00L9.79 7.00L9.79 7.00Q9.97 6.13 10.35 5.39L10.35 5.39L10.35 5.39Q10.72 4.65 11.39 4.21L11.39 4.21L11.39 4.21Q12.05 3.78 12.94 3.78L12.94 3.78L12.94 3.78Q13.82 3.78 14.48 4.21L14.48 4.21L14.48 4.21Q15.15 4.65 15.53 5.39L15.53 5.39L15.53 5.39Q15.92 6.13 16.10 7.00L16.10 7.00L16.10 7.00Q16.28 7.87 16.28 8.85L16.28 8.85L16.28 8.85Q16.28 9.83 16.10 10.70L16.10 10.70L16.10 10.70Q15.92 11.56 15.53 12.31L15.53 12.31L15.53 12.31Q15.15 13.05 14.48 13.48ZM12.94 12.80L12.94 12.80L12.94 12.80Q13.65 12.80 14.14 12.18L14.14 12.18L14.14 12.18Q14.63 11.56 14.83 10.71L14.83 10.71L14.83 10.71Q15.02 9.86 15.02 8.85L15.02 8.85L15.02 8.85Q15.02 7.15 14.51 6.03L14.51 6.03L14.51 6.03Q14 4.90 12.94 4.90L12.94 4.90L12.94 4.90Q12.21 4.90 11.73 5.51L11.73 5.51L11.73 5.51Q11.24 6.12 11.05 6.97L11.05 6.97L11.05 6.97Q10.85 7.83 10.85 8.85L10.85 8.85L10.85 8.85Q10.85 10.54 11.36 11.67L11.36 11.67L11.36 11.67Q11.87 12.80 12.94 12.80ZM23.11 13.48L23.11 13.48L23.11 13.48Q22.44 13.92 21.56 13.92L21.56 13.92L21.56 13.92Q20.68 13.92 20.01 13.48L20.01 13.48L20.01 13.48Q19.35 13.05 18.97 12.31L18.97 12.31L18.97 12.31Q18.59 11.56 18.41 10.70L18.41 10.70L18.41 10.70Q18.23 9.83 18.23 8.85L18.23 8.85L18.23 8.85Q18.23 7.87 18.41 7.00L18.41 7.00L18.41 7.00Q18.59 6.13 18.97 5.39L18.97 5.39L18.97 5.39Q19.35 4.65 20.01 4.21L20.01 4.21L20.01 4.21Q20.68 3.78 21.56 3.78L21.56 3.78L21.56 3.78Q22.44 3.78 23.11 4.21L23.11 4.21L23.11 4.21Q23.77 4.65 24.16 5.39L24.16 5.39L24.16 5.39Q24.54 6.13 24.72 7.00L24.72 7.00L24.72 7.00Q24.91 7.87 24.91 8.85L24.91 8.85L24.91 8.85Q24.91 9.83 24.72 10.70L24.72 10.70L24.72 10.70Q24.54 11.56 24.16 12.31L24.16 12.31L24.16 12.31Q23.77 13.05 23.11 13.48ZM21.56 12.80L21.56 12.80L21.56 12.80Q22.27 12.80 22.76 12.18L22.76 12.18L22.76 12.18Q23.25 11.56 23.45 10.71L23.45 10.71L23.45 10.71Q23.65 9.86 23.65 8.85L23.65 8.85L23.65 8.85Q23.65 7.15 23.14 6.03L23.14 6.03L23.14 6.03Q22.62 4.90 21.56 4.90L21.56 4.90L21.56 4.90Q20.83 4.90 20.35 5.51L20.35 5.51L20.35 5.51Q19.87 6.12 19.67 6.97L19.67 6.97L19.67 6.97Q19.47 7.83 19.47 8.85L19.47 8.85L19.47 8.85Q19.47 10.54 19.98 11.67L19.98 11.67L19.98 11.67Q20.50 12.80 21.56 12.80ZM33.31 6.73L33.31 6.73L33.31 6.73Q33.31 7.69 32.78 8.45L32.78 8.45L32.78 8.45Q32.26 9.21 31.16 9.45L31.16 9.45L33.26 13.75L31.93 13.75L29.89 9.55L28.42 9.55L28.42 13.75L27.22 13.75L27.22 3.95L30.23 3.95L30.23 3.95Q31.86 3.95 32.59 4.74L32.59 4.74L32.59 4.74Q33.31 5.53 33.31 6.73ZM30.25 5.05L28.42 5.05L28.42 8.44L30.25 8.44L30.25 8.44Q31.23 8.44 31.68 7.96L31.68 7.96L31.68 7.96Q32.12 7.48 32.12 6.76L32.12 6.76L32.12 6.76Q32.12 6.09 31.68 5.57L31.68 5.57L31.68 5.57Q31.25 5.05 30.25 5.05L30.25 5.05ZM36.95 13.75L35.84 13.75L35.84 3.95L37.14 3.95L38.61 9.81L38.61 9.81Q38.77 10.43 38.82 10.84L38.82 10.84L38.82 10.84Q38.86 10.43 39.03 9.81L39.03 9.81L40.52 3.95L41.78 3.95L41.78 13.75L40.67 13.75L40.67 7.60L40.67 7.60Q40.67 7.01 40.70 6.71L40.70 6.71L40.70 6.71Q40.67 6.86 40.49 7.60L40.49 7.60L38.91 13.75L38.71 13.75L37.13 7.60L37.13 7.60Q36.96 6.86 36.92 6.71L36.92 6.71L36.92 6.71Q36.95 7.32 36.95 7.60L36.95 7.60L36.95 13.75ZM47.66 13.92L47.66 13.92L47.66 13.92Q46.47 13.92 45.65 13.17L45.65 13.17L45.65 13.17Q44.83 12.42 44.48 11.31L44.48 11.31L44.48 11.31Q44.13 10.19 44.13 8.85L44.13 8.85L44.13 8.85Q44.13 6.73 45.04 5.26L45.04 5.26L45.04 5.26Q45.95 3.78 47.66 3.78L47.66 3.78L47.66 3.78Q48.72 3.78 49.34 4.24L49.34 4.24L49.34 4.24Q49.95 4.70 50.37 5.49L50.37 5.49L49.31 6.10L49.31 6.10Q49.00 5.54 48.62 5.22L48.62 5.22L48.62 5.22Q48.24 4.90 47.66 4.90L47.66 4.90L47.66 4.90Q46.86 4.90 46.33 5.53L46.33 5.53L46.33 5.53Q45.79 6.16 45.59 7.01L45.59 7.01L45.59 7.01Q45.39 7.85 45.39 8.85L45.39 8.85L45.39 8.85Q45.39 10.51 45.96 11.66L45.96 11.66L45.96 11.66Q46.54 12.80 47.66 12.80L47.66 12.80L47.66 12.80Q48.48 12.80 48.96 12.19L48.96 12.19L48.96 12.19Q49.43 11.58 49.43 10.57L49.43 10.57L49.43 10.11L47.67 10.11L47.67 9.00L50.69 9.00L50.69 10.18L50.69 10.18Q50.69 11.94 49.84 12.93L49.84 12.93L49.84 12.93Q48.99 13.92 47.66 13.92ZM57.60 13.48L57.60 13.48L57.60 13.48Q56.94 13.92 56.06 13.92L56.06 13.92L56.06 13.92Q55.17 13.92 54.51 13.48L54.51 13.48L54.51 13.48Q53.84 13.05 53.47 12.31L53.47 12.31L53.47 12.31Q53.09 11.56 52.91 10.70L52.91 10.70L52.91 10.70Q52.72 9.83 52.72 8.85L52.72 8.85L52.72 8.85Q52.72 7.87 52.91 7.00L52.91 7.00L52.91 7.00Q53.09 6.13 53.47 5.39L53.47 5.39L53.47 5.39Q53.84 4.65 54.51 4.21L54.51 4.21L54.51 4.21Q55.17 3.78 56.06 3.78L56.06 3.78L56.06 3.78Q56.94 3.78 57.60 4.21L57.60 4.21L57.60 4.21Q58.27 4.65 58.65 5.39L58.65 5.39L58.65 5.39Q59.04 6.13 59.22 7.00L59.22 7.00L59.22 7.00Q59.40 7.87 59.40 8.85L59.40 8.85L59.40 8.85Q59.40 9.83 59.22 10.70L59.22 10.70L59.22 10.70Q59.04 11.56 58.65 12.31L58.65 12.31L58.65 12.31Q58.27 13.05 57.60 13.48ZM56.06 12.80L56.06 12.80L56.06 12.80Q56.77 12.80 57.26 12.18L57.26 12.18L57.26 12.18Q57.75 11.56 57.95 10.71L57.95 10.71L57.95 10.71Q58.14 9.86 58.14 8.85L58.14 8.85L58.14 8.85Q58.14 7.15 57.63 6.03L57.63 6.03L57.63 6.03Q57.12 4.90 56.06 4.90L56.06 4.90L56.06 4.90Q55.33 4.90 54.85 5.51L54.85 5.51L54.85 5.51Q54.36 6.12 54.17 6.97L54.17 6.97L54.17 6.97Q53.97 7.83 53.97 8.85L53.97 8.85L53.97 8.85Q53.97 10.54 54.48 11.67L54.48 11.67L54.48 11.67Q54.99 12.80 56.06 12.80ZM66.23 13.48L66.23 13.48L66.23 13.48Q65.56 13.92 64.68 13.92L64.68 13.92L64.68 13.92Q63.80 13.92 63.13 13.48L63.13 13.48L63.13 13.48Q62.47 13.05 62.09 12.31L62.09 12.31L62.09 12.31Q61.71 11.56 61.53 10.70L61.53 10.70L61.53 10.70Q61.35 9.83 61.35 8.85L61.35 8.85L61.35 8.85Q61.35 7.87 61.53 7.00L61.53 7.00L61.53 7.00Q61.71 6.13 62.09 5.39L62.09 5.39L62.09 5.39Q62.47 4.65 63.13 4.21L63.13 4.21L63.13 4.21Q63.80 3.78 64.68 3.78L64.68 3.78L64.68 3.78Q65.56 3.78 66.23 4.21L66.23 4.21L66.23 4.21Q66.89 4.65 67.28 5.39L67.28 5.39L67.28 5.39Q67.66 6.13 67.84 7.00L67.84 7.00L67.84 7.00Q68.03 7.87 68.03 8.85L68.03 8.85L68.03 8.85Q68.03 9.83 67.84 10.70L67.84 10.70L67.84 10.70Q67.66 11.56 67.28 12.31L67.28 12.31L67.28 12.31Q66.89 13.05 66.23 13.48ZM64.68 12.80L64.68 12.80L64.68 12.80Q65.39 12.80 65.88 12.18L65.88 12.18L65.88 12.18Q66.37 11.56 66.57 10.71L66.57 10.71L66.57 10.71Q66.77 9.86 66.77 8.85L66.77 8.85L66.77 8.85Q66.77 7.15 66.26 6.03L66.26 6.03L66.26 6.03Q65.74 4.90 64.68 4.90L64.68 4.90L64.68 4.90Q63.95 4.90 63.47 5.51L63.47 5.51L63.47 5.51Q62.99 6.12 62.79 6.97L62.79 6.97L62.79 6.97Q62.59 7.83 62.59 8.85L62.59 8.85L62.59 8.85Q62.59 10.54 63.11 11.67L63.11 11.67L63.11 11.67Q63.62 12.80 64.68 12.80ZM76.43 6.73L76.43 6.73L76.43 6.73Q76.43 7.69 75.90 8.45L75.90 8.45L75.90 8.45Q75.38 9.21 74.28 9.45L74.28 9.45L76.38 13.75L75.05 13.75L73.01 9.55L71.54 9.55L71.54 13.75L70.34 13.75L70.34 3.95L73.35 3.95L73.35 3.95Q74.98 3.95 75.70 4.74L75.70 4.74L75.70 4.74Q76.43 5.53 76.43 6.73ZM73.37 5.05L71.54 5.05L71.54 8.44L73.37 8.44L73.37 8.44Q74.35 8.44 74.80 7.96L74.80 7.96L74.80 7.96Q75.24 7.48 75.24 6.76L75.24 6.76L75.24 6.76Q75.24 6.09 74.80 5.57L74.80 5.57L74.80 5.57Q74.37 5.05 73.37 5.05L73.37 5.05ZM80.07 13.75L78.96 13.75L78.96 3.95L80.26 3.95L81.73 9.81L81.73 9.81Q81.89 10.43 81.94 10.84L81.94 10.84L81.94 10.84Q81.98 10.43 82.15 9.81L82.15 9.81L83.64 3.95L84.90 3.95L84.90 13.75L83.79 13.75L83.79 7.60L83.79 7.60Q83.79 7.01 83.82 6.71L83.82 6.71L83.82 6.71Q83.79 6.86 83.61 7.60L83.61 7.60L82.03 13.75L81.83 13.75L80.25 7.60L80.25 7.60Q80.08 6.86 80.04 6.71L80.04 6.71L80.04 6.71Q80.07 7.32 80.07 7.60L80.07 7.60L80.07 13.75Z"></path></g><!----><!----></svg>